<svg xmlns="http://www.w3.org/2000/svg" viewBox="0 0 600 400" width="100%" height="100%" style="background:#05070e; font-family: 'JetBrains Mono', monospace;">
  <defs>
    <radialGradient id="sarDiffGrad" cx="40%" cy="50%" r="50%">
      <stop offset="0%" stop-color="#ef4444" stop-opacity="0.9"/>
      <stop offset="50%" stop-color="#f97316" stop-opacity="0.75"/>
      <stop offset="100%" stop-color="#05070e" stop-opacity="0.1"/>
    </radialGradient>
  </defs>

  <!-- High contrast SAR delta difference layer -->
  <rect width="600" height="400" fill="#05070e" />

  <!-- SAR Inundation Delta Heatmap Polygon -->
  <path d="M 10,120 Q 90,70 190,100 Q 290,130 350,170 Q 430,190 440,270 Q 430,350 370,370 Q 230,390 110,370 Q 10,340 10,250 Z" fill="url(#sarDiffGrad)" stroke="#f87171" stroke-width="1.5"/>

  <!-- Contour lines -->
  <path d="M 60,150 Q 140,120 220,150 Q 300,180 340,220 Q 370,290 320,330 Q 200,350 100,320 Z" fill="none" stroke="#facc15" stroke-width="1" stroke-dasharray="3,3"/>

  <!-- Difference overlay metrics -->
  <rect x="16" y="16" width="270" height="60" rx="6" fill="#0b1120" fill-opacity="0.9" stroke="#f97316" stroke-width="1.2"/>
  <text x="28" y="36" fill="#fdba74" font-size="10" letter-spacing="1">SAR BACKSCATTER COHERENCE DELTA</text>
  <text x="28" y="54" fill="#ef4444" font-size="14" font-weight="700">Δ Flood Area: +8.50 km²</text>
  <text x="28" y="68" fill="#94a3b8" font-size="9">Dual-Pol (VV-VH) Log-Ratio Threshold: -4.5dB</text>

  <rect x="360" y="340" width="224" height="44" rx="6" fill="#0b1120" fill-opacity="0.9" stroke="#334155" stroke-width="1"/>
  <text x="372" y="358" fill="#94a3b8" font-size="9">SAR CLOUD PENETRATION</text>
  <text x="372" y="372" fill="#10b981" font-size="11" font-weight="600">✓ 100% Signal Integrity (Through Cloud)</text>
</svg>
